<?xml version="1.0" encoding="us-ascii" standalone="no"?><svg xmlns="http://www.w3.org/2000/svg" xmlns:xlink="http://www.w3.org/1999/xlink" contentStyleType="text/css" height="1344px" preserveAspectRatio="none" style="width:1190px;height:1344px;background:#FFFFFF;" version="1.1" viewBox="0 0 1190 1344" width="1190px" zoomAndPan="magnify"><defs/><g><!--class Part--><g id="elem_Part"><rect codeLine="1" fill="#F1F1F1" height="80.5938" id="Part" rx="2.5" ry="2.5" style="stroke:#181818;stroke-width:0.5;" width="159" x="613.5" y="529"/><ellipse cx="674.75" cy="545" fill="#A9DCDF" rx="11" ry="11" style="stroke:#181818;stroke-width:1.0;"/><path d="M676.8281,546.8125 L677.2188,547.7969 L676.8281,547.7969 C676.375,547.7969 676.2656,547.8125 676.1094,547.9219 C675.8594,548.0781 675.7031,548.3594 675.7031,548.6563 C675.7031,548.9219 675.8438,549.1719 676.0625,549.3281 C676.2031,549.4531 676.4063,549.5 676.8281,549.5 L679.1875,549.5 C679.5469,549.5 679.7656,549.4688 679.9063,549.375 C680.1563,549.2344 680.3125,548.9375 680.3125,548.6563 C680.3125,548.375 680.1719,548.125 679.9531,547.9688 C679.7813,547.8281 679.625,547.7969 679.1563,547.7969 L675.7656,539.5938 L672.0938,539.5938 C671.6406,539.5938 671.5156,539.6094 671.3594,539.7031 C671.1094,539.875 670.9531,540.1563 670.9531,540.4375 C670.9531,540.7188 671.0938,540.9688 671.3125,541.1406 C671.4844,541.25 671.6563,541.2813 672.0938,541.2813 L673.1719,541.2813 L670.5313,547.7969 C670.1094,547.7969 669.9531,547.8125 669.7969,547.9219 C669.5469,548.0781 669.3906,548.3594 669.3906,548.6563 C669.3906,549.2188 669.7656,549.5 670.5156,549.5 L672.7813,549.5 C673.1406,549.5 673.3594,549.4688 673.4844,549.375 C673.75,549.2344 673.8906,548.9375 673.8906,548.6563 C673.8906,548.375 673.7656,548.125 673.5469,547.9531 C673.375,547.8281 673.2344,547.7969 672.7813,547.7969 L672.3906,547.7969 L672.7813,546.8125 L676.8281,546.8125 Z M676.125,545.1094 L673.4531,545.1094 L674.7969,541.8438 L676.125,545.1094 Z " fill="#000000"/><text fill="#000000" font-family="sans-serif" font-size="14" font-style="italic" lengthAdjust="spacing" textLength="28" x="695.25" y="549.8467">Part</text><line style="stroke:#181818;stroke-width:0.5;" x1="614.5" x2="771.5" y1="561" y2="561"/><ellipse cx="624.5" cy="574.6484" fill="none" rx="3" ry="3" style="stroke:#038048;stroke-width:1.0;"/><text fill="#000000" font-family="sans-serif" font-size="14" lengthAdjust="spacing" textLength="91" x="633.5" y="577.9951">name: string</text><ellipse cx="624.5" cy="590.9453" fill="none" rx="3" ry="3" style="stroke:#038048;stroke-width:1.0;"/><text fill="#000000" font-family="sans-serif" font-size="14" lengthAdjust="spacing" textLength="133" x="633.5" y="594.292">description: string</text><line style="stroke:#181818;stroke-width:0.5;" x1="614.5" x2="771.5" y1="601.5938" y2="601.5938"/></g><!--class SerialNumber--><g id="elem_SerialNumber"><rect codeLine="6" fill="#F1F1F1" height="113.1875" id="SerialNumber" rx="2.5" ry="2.5" style="stroke:#181818;stroke-width:0.5;" width="184" x="7" y="711"/><ellipse cx="46.3" cy="727" fill="#A9DCDF" rx="11" ry="11" style="stroke:#181818;stroke-width:1.0;"/><path d="M48.3781,728.8125 L48.7688,729.7969 L48.3781,729.7969 C47.925,729.7969 47.8156,729.8125 47.6594,729.9219 C47.4094,730.0781 47.2531,730.3594 47.2531,730.6563 C47.2531,730.9219 47.3938,731.1719 47.6125,731.3281 C47.7531,731.4531 47.9563,731.5 48.3781,731.5 L50.7375,731.5 C51.0969,731.5 51.3156,731.4688 51.4563,731.375 C51.7063,731.2344 51.8625,730.9375 51.8625,730.6563 C51.8625,730.375 51.7219,730.125 51.5031,729.9688 C51.3313,729.8281 51.175,729.7969 50.7063,729.7969 L47.3156,721.5938 L43.6438,721.5938 C43.1906,721.5938 43.0656,721.6094 42.9094,721.7031 C42.6594,721.875 42.5031,722.1563 42.5031,722.4375 C42.5031,722.7188 42.6438,722.9688 42.8625,723.1406 C43.0344,723.25 43.2063,723.2813 43.6438,723.2813 L44.7219,723.2813 L42.0813,729.7969 C41.6594,729.7969 41.5031,729.8125 41.3469,729.9219 C41.0969,730.0781 40.9406,730.3594 40.9406,730.6563 C40.9406,731.2188 41.3156,731.5 42.0656,731.5 L44.3313,731.5 C44.6906,731.5 44.9094,731.4688 45.0344,731.375 C45.3,731.2344 45.4406,730.9375 45.4406,730.6563 C45.4406,730.375 45.3156,730.125 45.0969,729.9531 C44.925,729.8281 44.7844,729.7969 44.3313,729.7969 L43.9406,729.7969 L44.3313,728.8125 L48.3781,728.8125 Z M47.675,727.1094 L45.0031,727.1094 L46.3469,723.8438 L47.675,727.1094 Z " fill="#000000"/><text fill="#000000" font-family="sans-serif" font-size="14" font-style="italic" lengthAdjust="spacing" textLength="98" x="65.7" y="731.8467">SerialNumber</text><line style="stroke:#181818;stroke-width:0.5;" x1="8" x2="190" y1="743" y2="743"/><ellipse cx="18" cy="756.6484" fill="none" rx="3" ry="3" style="stroke:#038048;stroke-width:1.0;"/><text fill="#000000" font-family="sans-serif" font-size="14" lengthAdjust="spacing" textLength="148" x="27" y="759.9951">manufacturer: string</text><ellipse cx="18" cy="772.9453" fill="none" rx="3" ry="3" style="stroke:#038048;stroke-width:1.0;"/><text fill="#000000" font-family="sans-serif" font-size="14" lengthAdjust="spacing" textLength="96" x="27" y="776.292">model: string</text><ellipse cx="18" cy="789.2422" fill="none" rx="3" ry="3" style="stroke:#038048;stroke-width:1.0;"/><text fill="#000000" font-family="sans-serif" font-size="14" lengthAdjust="spacing" textLength="158" x="27" y="792.5889">productionDate: Date</text><ellipse cx="18" cy="805.5391" fill="none" rx="3" ry="3" style="stroke:#038048;stroke-width:1.0;"/><text fill="#000000" font-family="sans-serif" font-size="14" lengthAdjust="spacing" textLength="146" x="27" y="808.8857">serialNumber: string</text><line style="stroke:#181818;stroke-width:0.5;" x1="8" x2="190" y1="816.1875" y2="816.1875"/></g><!--class Machine--><g id="elem_Machine"><rect codeLine="13" fill="#F1F1F1" height="113.1875" id="Machine" rx="2.5" ry="2.5" style="stroke:#181818;stroke-width:0.5;" width="276" x="106" y="909"/><ellipse cx="209.75" cy="925" fill="#B4A7E5" rx="11" ry="11" style="stroke:#181818;stroke-width:1.0;"/><path d="M210.7031,921.7813 L212.4219,921.7813 C212.8125,921.7813 213,921.75 213.125,921.6719 C213.3906,921.5156 213.5313,921.2344 213.5313,920.9375 C213.5313,920.6719 213.4219,920.4063 213.1875,920.2344 C213.0156,920.125 212.875,920.0938 212.4219,920.0938 L207.2813,920.0938 C206.8438,920.0938 206.7188,920.1094 206.5625,920.2031 C206.3125,920.3594 206.1563,920.6563 206.1563,920.9375 C206.1563,921.2188 206.2969,921.4688 206.5156,921.6406 C206.6719,921.75 206.8594,921.7813 207.2813,921.7813 L209,921.7813 L209,928.2969 L207.2813,928.2969 C206.8438,928.2969 206.7188,928.3125 206.5625,928.4219 C206.3125,928.5781 206.1563,928.8594 206.1563,929.1563 C206.1563,929.4063 206.2969,929.6719 206.5156,929.8281 C206.6719,929.9531 206.875,930 207.2813,930 L212.4219,930 C213.1719,930 213.5313,929.7188 213.5313,929.1563 C213.5313,928.875 213.4219,928.625 213.1875,928.4531 C213.0156,928.3281 212.875,928.2969 212.4219,928.2969 L210.7031,928.2969 L210.7031,921.7813 Z " fill="#000000"/><text fill="#000000" font-family="sans-serif" font-size="14" font-style="italic" lengthAdjust="spacing" textLength="60" x="230.25" y="929.8467">Machine</text><line style="stroke:#181818;stroke-width:0.5;" x1="107" x2="381" y1="941" y2="941"/><ellipse cx="117" cy="954.6484" fill="none" rx="3" ry="3" style="stroke:#038048;stroke-width:1.0;"/><text fill="#000000" font-family="sans-serif" font-size="14" lengthAdjust="spacing" textLength="201" x="126" y="957.9951">serialNumber: SerialNumber</text><ellipse cx="117" cy="970.9453" fill="none" rx="3" ry="3" style="stroke:#038048;stroke-width:1.0;"/><text fill="#000000" font-family="sans-serif" font-size="14" lengthAdjust="spacing" textLength="87" x="126" y="974.292">parts: Part[]</text><line style="stroke:#181818;stroke-width:0.5;" x1="107" x2="381" y1="981.5938" y2="981.5938"/><ellipse cx="117" cy="995.2422" fill="#84BE84" rx="3" ry="3" style="stroke:#038048;stroke-width:1.0;"/><text fill="#000000" font-family="sans-serif" font-size="14" lengthAdjust="spacing" textLength="250" x="126" y="998.5889">occupy(operator: Person): boolean</text><ellipse cx="117" cy="1011.5391" fill="#84BE84" rx="3" ry="3" style="stroke:#038048;stroke-width:1.0;"/><text fill="#000000" font-family="sans-serif" font-size="14" lengthAdjust="spacing" textLength="222" x="126" y="1014.8857">assemble(item: Item): boolean</text></g><!--class Item--><g id="elem_Item"><rect codeLine="20" fill="#F1F1F1" height="96.8906" id="Item" rx="2.5" ry="2.5" style="stroke:#181818;stroke-width:0.5;" width="163" x="611.5" y="339"/><ellipse cx="672.75" cy="355" fill="#B4A7E5" rx="11" ry="11" style="stroke:#181818;stroke-width:1.0;"/><path d="M673.7031,351.7813 L675.4219,351.7813 C675.8125,351.7813 676,351.75 676.125,351.6719 C676.3906,351.5156 676.5313,351.2344 676.5313,350.9375 C676.5313,350.6719 676.4219,350.4063 676.1875,350.2344 C676.0156,350.125 675.875,350.0938 675.4219,350.0938 L670.2813,350.0938 C669.8438,350.0938 669.7188,350.1094 669.5625,350.2031 C669.3125,350.3594 669.1563,350.6563 669.1563,350.9375 C669.1563,351.2188 669.2969,351.4688 669.5156,351.6406 C669.6719,351.75 669.8594,351.7813 670.2813,351.7813 L672,351.7813 L672,358.2969 L670.2813,358.2969 C669.8438,358.2969 669.7188,358.3125 669.5625,358.4219 C669.3125,358.5781 669.1563,358.8594 669.1563,359.1563 C669.1563,359.4063 669.2969,359.6719 669.5156,359.8281 C669.6719,359.9531 669.875,360 670.2813,360 L675.4219,360 C676.1719,360 676.5313,359.7188 676.5313,359.1563 C676.5313,358.875 676.4219,358.625 676.1875,358.4531 C676.0156,358.3281 675.875,358.2969 675.4219,358.2969 L673.7031,358.2969 L673.7031,351.7813 Z " fill="#000000"/><text fill="#000000" font-family="sans-serif" font-size="14" font-style="italic" lengthAdjust="spacing" textLength="32" x="693.25" y="359.8467">Item</text><line style="stroke:#181818;stroke-width:0.5;" x1="612.5" x2="773.5" y1="371" y2="371"/><ellipse cx="622.5" cy="384.6484" fill="none" rx="3" ry="3" style="stroke:#038048;stroke-width:1.0;"/><text fill="#000000" font-family="sans-serif" font-size="14" lengthAdjust="spacing" textLength="87" x="631.5" y="387.9951">parts: Part[]</text><ellipse cx="622.5" cy="400.9453" fill="none" rx="3" ry="3" style="stroke:#038048;stroke-width:1.0;"/><text fill="#000000" font-family="sans-serif" font-size="14" lengthAdjust="spacing" textLength="137" x="631.5" y="404.292">complete: boolean</text><line style="stroke:#181818;stroke-width:0.5;" x1="612.5" x2="773.5" y1="411.5938" y2="411.5938"/><ellipse cx="622.5" cy="425.2422" fill="#84BE84" rx="3" ry="3" style="stroke:#038048;stroke-width:1.0;"/><text fill="#000000" font-family="sans-serif" font-size="14" lengthAdjust="spacing" textLength="101" x="631.5" y="428.5889">use(): boolean</text></g><!--class Factory--><g id="elem_Factory"><rect codeLine="26" fill="#F1F1F1" height="80.5938" id="Factory" rx="2.5" ry="2.5" style="stroke:#181818;stroke-width:0.5;" width="171" x="158.5" y="1257"/><ellipse cx="213.25" cy="1273" fill="#B4A7E5" rx="11" ry="11" style="stroke:#181818;stroke-width:1.0;"/><path d="M214.2031,1269.7813 L215.9219,1269.7813 C216.3125,1269.7813 216.5,1269.75 216.625,1269.6719 C216.8906,1269.5156 217.0313,1269.2344 217.0313,1268.9375 C217.0313,1268.6719 216.9219,1268.4063 216.6875,1268.2344 C216.5156,1268.125 216.375,1268.0938 215.9219,1268.0938 L210.7813,1268.0938 C210.3438,1268.0938 210.2188,1268.1094 210.0625,1268.2031 C209.8125,1268.3594 209.6563,1268.6563 209.6563,1268.9375 C209.6563,1269.2188 209.7969,1269.4688 210.0156,1269.6406 C210.1719,1269.75 210.3594,1269.7813 210.7813,1269.7813 L212.5,1269.7813 L212.5,1276.2969 L210.7813,1276.2969 C210.3438,1276.2969 210.2188,1276.3125 210.0625,1276.4219 C209.8125,1276.5781 209.6563,1276.8594 209.6563,1277.1563 C209.6563,1277.4063 209.7969,1277.6719 210.0156,1277.8281 C210.1719,1277.9531 210.375,1278 210.7813,1278 L215.9219,1278 C216.6719,1278 217.0313,1277.7188 217.0313,1277.1563 C217.0313,1276.875 216.9219,1276.625 216.6875,1276.4531 C216.5156,1276.3281 216.375,1276.2969 215.9219,1276.2969 L214.2031,1276.2969 L214.2031,1269.7813 Z " fill="#000000"/><text fill="#000000" font-family="sans-serif" font-size="14" font-style="italic" lengthAdjust="spacing" textLength="53" x="233.75" y="1277.8467">Factory</text><line style="stroke:#181818;stroke-width:0.5;" x1="159.5" x2="328.5" y1="1289" y2="1289"/><ellipse cx="169.5" cy="1302.6484" fill="none" rx="3" ry="3" style="stroke:#038048;stroke-width:1.0;"/><text fill="#000000" font-family="sans-serif" font-size="14" lengthAdjust="spacing" textLength="145" x="178.5" y="1305.9951">assembly: Machine[]</text><line style="stroke:#181818;stroke-width:0.5;" x1="159.5" x2="328.5" y1="1313.2969" y2="1313.2969"/><ellipse cx="169.5" cy="1326.9453" fill="#84BE84" rx="3" ry="3" style="stroke:#038048;stroke-width:1.0;"/><text fill="#000000" font-family="sans-serif" font-size="14" lengthAdjust="spacing" textLength="112" x="178.5" y="1330.292">produce(): Item</text></g><!--class Person--><g id="elem_Person"><rect codeLine="31" fill="#F1F1F1" height="80.5938" id="Person" rx="2.5" ry="2.5" style="stroke:#181818;stroke-width:0.5;" width="238" x="404" y="173"/><ellipse cx="494.75" cy="189" fill="#B4A7E5" rx="11" ry="11" style="stroke:#181818;stroke-width:1.0;"/><path d="M495.7031,185.7813 L497.4219,185.7813 C497.8125,185.7813 498,185.75 498.125,185.6719 C498.3906,185.5156 498.5313,185.2344 498.5313,184.9375 C498.5313,184.6719 498.4219,184.4063 498.1875,184.2344 C498.0156,184.125 497.875,184.0938 497.4219,184.0938 L492.2813,184.0938 C491.8438,184.0938 491.7188,184.1094 491.5625,184.2031 C491.3125,184.3594 491.1563,184.6563 491.1563,184.9375 C491.1563,185.2188 491.2969,185.4688 491.5156,185.6406 C491.6719,185.75 491.8594,185.7813 492.2813,185.7813 L494,185.7813 L494,192.2969 L492.2813,192.2969 C491.8438,192.2969 491.7188,192.3125 491.5625,192.4219 C491.3125,192.5781 491.1563,192.8594 491.1563,193.1563 C491.1563,193.4063 491.2969,193.6719 491.5156,193.8281 C491.6719,193.9531 491.875,194 492.2813,194 L497.4219,194 C498.1719,194 498.5313,193.7188 498.5313,193.1563 C498.5313,192.875 498.4219,192.625 498.1875,192.4531 C498.0156,192.3281 497.875,192.2969 497.4219,192.2969 L495.7031,192.2969 L495.7031,185.7813 Z " fill="#000000"/><text fill="#000000" font-family="sans-serif" font-size="14" font-style="italic" lengthAdjust="spacing" textLength="48" x="515.25" y="193.8467">Person</text><line style="stroke:#181818;stroke-width:0.5;" x1="405" x2="641" y1="205" y2="205"/><ellipse cx="415" cy="218.6484" fill="none" rx="3" ry="3" style="stroke:#038048;stroke-width:1.0;"/><text fill="#000000" font-family="sans-serif" font-size="14" lengthAdjust="spacing" textLength="91" x="424" y="221.9951">name: string</text><line style="stroke:#181818;stroke-width:0.5;" x1="405" x2="641" y1="229.2969" y2="229.2969"/><ellipse cx="415" cy="242.9453" fill="#84BE84" rx="3" ry="3" style="stroke:#038048;stroke-width:1.0;"/><text fill="#000000" font-family="sans-serif" font-size="14" lengthAdjust="spacing" textLength="212" x="424" y="246.292">interact(item: Item): boolean</text></g><!--class DiscCraftSerialNumber--><g id="elem_DiscCraftSerialNumber"><rect codeLine="36" fill="#F1F1F1" height="113.1875" id="DiscCraftSerialNumber" rx="2.5" ry="2.5" style="stroke:#181818;stroke-width:0.5;" width="196" x="101" y="513"/><ellipse cx="116" cy="529" fill="#ADD1B2" rx="11" ry="11" style="stroke:#181818;stroke-width:1.0;"/><path d="M118.3438,524.6719 C117.4063,524.2344 116.8125,524.0938 115.9375,524.0938 C113.3125,524.0938 111.3125,526.1719 111.3125,528.8906 L111.3125,530.0156 C111.3125,532.5938 113.4219,534.4844 116.3125,534.4844 C117.5313,534.4844 118.6875,534.1875 119.4375,533.6406 C120.0156,533.2344 120.3438,532.7813 120.3438,532.3906 C120.3438,531.9375 119.9531,531.5469 119.4844,531.5469 C119.2656,531.5469 119.0625,531.625 118.875,531.8125 C118.4219,532.2969 118.4219,532.2969 118.2344,532.3906 C117.8125,532.6563 117.125,532.7813 116.3594,532.7813 C114.3125,532.7813 113.0156,531.6875 113.0156,529.9844 L113.0156,528.8906 C113.0156,527.1094 114.2656,525.7969 116,525.7969 C116.5781,525.7969 117.1875,525.9531 117.6563,526.2031 C118.1406,526.4844 118.3125,526.7031 118.4063,527.1094 C118.4688,527.5156 118.5,527.6406 118.6406,527.7656 C118.7813,527.9063 119.0156,528.0156 119.2344,528.0156 C119.5,528.0156 119.7656,527.875 119.9375,527.6563 C120.0469,527.5 120.0781,527.3125 120.0781,526.8906 L120.0781,525.4688 C120.0781,525.0313 120.0625,524.9063 119.9688,524.75 C119.8125,524.4844 119.5313,524.3438 119.2344,524.3438 C118.9375,524.3438 118.7344,524.4375 118.5156,524.75 L118.3438,524.6719 Z " fill="#000000"/><text fill="#000000" font-family="sans-serif" font-size="14" lengthAdjust="spacing" textLength="164" x="130" y="533.8467">DiscCraftSerialNumber</text><line style="stroke:#181818;stroke-width:0.5;" x1="102" x2="296" y1="545" y2="545"/><ellipse cx="112" cy="558.6484" fill="none" rx="3" ry="3" style="stroke:#038048;stroke-width:1.0;"/><text fill="#000000" font-family="sans-serif" font-size="14" lengthAdjust="spacing" textLength="148" x="121" y="561.9951">manufacturer: string</text><ellipse cx="112" cy="574.9453" fill="none" rx="3" ry="3" style="stroke:#038048;stroke-width:1.0;"/><text fill="#000000" font-family="sans-serif" font-size="14" lengthAdjust="spacing" textLength="96" x="121" y="578.292">model: string</text><ellipse cx="112" cy="591.2422" fill="none" rx="3" ry="3" style="stroke:#038048;stroke-width:1.0;"/><text fill="#000000" font-family="sans-serif" font-size="14" lengthAdjust="spacing" textLength="158" x="121" y="594.5889">productionDate: Date</text><ellipse cx="112" cy="607.5391" fill="none" rx="3" ry="3" style="stroke:#038048;stroke-width:1.0;"/><text fill="#000000" font-family="sans-serif" font-size="14" lengthAdjust="spacing" textLength="146" x="121" y="610.8857">serialNumber: string</text><line style="stroke:#181818;stroke-width:0.5;" x1="102" x2="296" y1="618.1875" y2="618.1875"/></g><!--class DiscCraftMachine--><g id="elem_DiscCraftMachine"><rect codeLine="43" fill="#F1F1F1" height="129.4844" id="DiscCraftMachine" rx="2.5" ry="2.5" style="stroke:#181818;stroke-width:0.5;" width="294" x="226" y="703"/><ellipse cx="305.75" cy="719" fill="#ADD1B2" rx="11" ry="11" style="stroke:#181818;stroke-width:1.0;"/><path d="M308.0938,714.6719 C307.1563,714.2344 306.5625,714.0938 305.6875,714.0938 C303.0625,714.0938 301.0625,716.1719 301.0625,718.8906 L301.0625,720.0156 C301.0625,722.5938 303.1719,724.4844 306.0625,724.4844 C307.2813,724.4844 308.4375,724.1875 309.1875,723.6406 C309.7656,723.2344 310.0938,722.7813 310.0938,722.3906 C310.0938,721.9375 309.7031,721.5469 309.2344,721.5469 C309.0156,721.5469 308.8125,721.625 308.625,721.8125 C308.1719,722.2969 308.1719,722.2969 307.9844,722.3906 C307.5625,722.6563 306.875,722.7813 306.1094,722.7813 C304.0625,722.7813 302.7656,721.6875 302.7656,719.9844 L302.7656,718.8906 C302.7656,717.1094 304.0156,715.7969 305.75,715.7969 C306.3281,715.7969 306.9375,715.9531 307.4063,716.2031 C307.8906,716.4844 308.0625,716.7031 308.1563,717.1094 C308.2188,717.5156 308.25,717.6406 308.3906,717.7656 C308.5313,717.9063 308.7656,718.0156 308.9844,718.0156 C309.25,718.0156 309.5156,717.875 309.6875,717.6563 C309.7969,717.5 309.8281,717.3125 309.8281,716.8906 L309.8281,715.4688 C309.8281,715.0313 309.8125,714.9063 309.7188,714.75 C309.5625,714.4844 309.2813,714.3438 308.9844,714.3438 C308.6875,714.3438 308.4844,714.4375 308.2656,714.75 L308.0938,714.6719 Z " fill="#000000"/><text fill="#000000" font-family="sans-serif" font-size="14" lengthAdjust="spacing" textLength="126" x="326.25" y="723.8467">DiscCraftMachine</text><line style="stroke:#181818;stroke-width:0.5;" x1="227" x2="519" y1="735" y2="735"/><ellipse cx="237" cy="748.6484" fill="none" rx="3" ry="3" style="stroke:#038048;stroke-width:1.0;"/><text fill="#000000" font-family="sans-serif" font-size="14" lengthAdjust="spacing" textLength="268" x="246" y="751.9951">serialNumber: DiscCraftSerialNumber</text><ellipse cx="237" cy="764.9453" fill="none" rx="3" ry="3" style="stroke:#038048;stroke-width:1.0;"/><text fill="#000000" font-family="sans-serif" font-size="14" lengthAdjust="spacing" textLength="87" x="246" y="768.292">parts: Part[]</text><ellipse cx="237" cy="781.2422" fill="none" rx="3" ry="3" style="stroke:#038048;stroke-width:1.0;"/><text fill="#000000" font-family="sans-serif" font-size="14" lengthAdjust="spacing" textLength="207" x="246" y="784.5889">operator: Person | undefined</text><line style="stroke:#181818;stroke-width:0.5;" x1="227" x2="519" y1="791.8906" y2="791.8906"/><ellipse cx="237" cy="805.5391" fill="#84BE84" rx="3" ry="3" style="stroke:#038048;stroke-width:1.0;"/><text fill="#000000" font-family="sans-serif" font-size="14" lengthAdjust="spacing" textLength="250" x="246" y="808.8857">occupy(operator: Person): boolean</text><ellipse cx="237" cy="821.8359" fill="#84BE84" rx="3" ry="3" style="stroke:#038048;stroke-width:1.0;"/><text fill="#000000" font-family="sans-serif" font-size="14" lengthAdjust="spacing" textLength="218" x="246" y="825.1826">assemble(item: Disc): boolean</text></g><!--class Disc--><g id="elem_Disc"><rect codeLine="51" fill="#F1F1F1" height="96.8906" id="Disc" rx="2.5" ry="2.5" style="stroke:#181818;stroke-width:0.5;" width="216" x="677" y="165"/><ellipse cx="765.75" cy="181" fill="#ADD1B2" rx="11" ry="11" style="stroke:#181818;stroke-width:1.0;"/><path d="M768.0938,176.6719 C767.1563,176.2344 766.5625,176.0938 765.6875,176.0938 C763.0625,176.0938 761.0625,178.1719 761.0625,180.8906 L761.0625,182.0156 C761.0625,184.5938 763.1719,186.4844 766.0625,186.4844 C767.2813,186.4844 768.4375,186.1875 769.1875,185.6406 C769.7656,185.2344 770.0938,184.7813 770.0938,184.3906 C770.0938,183.9375 769.7031,183.5469 769.2344,183.5469 C769.0156,183.5469 768.8125,183.625 768.625,183.8125 C768.1719,184.2969 768.1719,184.2969 767.9844,184.3906 C767.5625,184.6563 766.875,184.7813 766.1094,184.7813 C764.0625,184.7813 762.7656,183.6875 762.7656,181.9844 L762.7656,180.8906 C762.7656,179.1094 764.0156,177.7969 765.75,177.7969 C766.3281,177.7969 766.9375,177.9531 767.4063,178.2031 C767.8906,178.4844 768.0625,178.7031 768.1563,179.1094 C768.2188,179.5156 768.25,179.6406 768.3906,179.7656 C768.5313,179.9063 768.7656,180.0156 768.9844,180.0156 C769.25,180.0156 769.5156,179.875 769.6875,179.6563 C769.7969,179.5 769.8281,179.3125 769.8281,178.8906 L769.8281,177.4688 C769.8281,177.0313 769.8125,176.9063 769.7188,176.75 C769.5625,176.4844 769.2813,176.3438 768.9844,176.3438 C768.6875,176.3438 768.4844,176.4375 768.2656,176.75 L768.0938,176.6719 Z " fill="#000000"/><text fill="#000000" font-family="sans-serif" font-size="14" lengthAdjust="spacing" textLength="30" x="786.25" y="185.8467">Disc</text><line style="stroke:#181818;stroke-width:0.5;" x1="678" x2="892" y1="197" y2="197"/><ellipse cx="688" cy="210.6484" fill="none" rx="3" ry="3" style="stroke:#038048;stroke-width:1.0;"/><text fill="#000000" font-family="sans-serif" font-size="14" lengthAdjust="spacing" textLength="87" x="697" y="213.9951">parts: Part[]</text><ellipse cx="688" cy="226.9453" fill="none" rx="3" ry="3" style="stroke:#038048;stroke-width:1.0;"/><text fill="#000000" font-family="sans-serif" font-size="14" lengthAdjust="spacing" textLength="190" x="697" y="230.292">complete: boolean = false</text><line style="stroke:#181818;stroke-width:0.5;" x1="678" x2="892" y1="237.5938" y2="237.5938"/><ellipse cx="688" cy="251.2422" fill="#84BE84" rx="3" ry="3" style="stroke:#038048;stroke-width:1.0;"/><text fill="#000000" font-family="sans-serif" font-size="14" lengthAdjust="spacing" textLength="101" x="697" y="254.5889">use(): boolean</text></g><!--class Chad--><g id="elem_Chad"><rect codeLine="57" fill="#F1F1F1" height="80.5938" id="Chad" rx="2.5" ry="2.5" style="stroke:#181818;stroke-width:0.5;" width="238" x="404" y="7"/><ellipse cx="500.75" cy="23" fill="#ADD1B2" rx="11" ry="11" style="stroke:#181818;stroke-width:1.0;"/><path d="M503.0938,18.6719 C502.1563,18.2344 501.5625,18.0938 500.6875,18.0938 C498.0625,18.0938 496.0625,20.1719 496.0625,22.8906 L496.0625,24.0156 C496.0625,26.5938 498.1719,28.4844 501.0625,28.4844 C502.2813,28.4844 503.4375,28.1875 504.1875,27.6406 C504.7656,27.2344 505.0938,26.7813 505.0938,26.3906 C505.0938,25.9375 504.7031,25.5469 504.2344,25.5469 C504.0156,25.5469 503.8125,25.625 503.625,25.8125 C503.1719,26.2969 503.1719,26.2969 502.9844,26.3906 C502.5625,26.6563 501.875,26.7813 501.1094,26.7813 C499.0625,26.7813 497.7656,25.6875 497.7656,23.9844 L497.7656,22.8906 C497.7656,21.1094 499.0156,19.7969 500.75,19.7969 C501.3281,19.7969 501.9375,19.9531 502.4063,20.2031 C502.8906,20.4844 503.0625,20.7031 503.1563,21.1094 C503.2188,21.5156 503.25,21.6406 503.3906,21.7656 C503.5313,21.9063 503.7656,22.0156 503.9844,22.0156 C504.25,22.0156 504.5156,21.875 504.6875,21.6563 C504.7969,21.5 504.8281,21.3125 504.8281,20.8906 L504.8281,19.4688 C504.8281,19.0313 504.8125,18.9063 504.7188,18.75 C504.5625,18.4844 504.2813,18.3438 503.9844,18.3438 C503.6875,18.3438 503.4844,18.4375 503.2656,18.75 L503.0938,18.6719 Z " fill="#000000"/><text fill="#000000" font-family="sans-serif" font-size="14" lengthAdjust="spacing" textLength="36" x="521.25" y="27.8467">Chad</text><line style="stroke:#181818;stroke-width:0.5;" x1="405" x2="641" y1="39" y2="39"/><ellipse cx="415" cy="52.6484" fill="none" rx="3" ry="3" style="stroke:#038048;stroke-width:1.0;"/><text fill="#000000" font-family="sans-serif" font-size="14" lengthAdjust="spacing" textLength="91" x="424" y="55.9951">name: string</text><line style="stroke:#181818;stroke-width:0.5;" x1="405" x2="641" y1="63.2969" y2="63.2969"/><ellipse cx="415" cy="76.9453" fill="#84BE84" rx="3" ry="3" style="stroke:#038048;stroke-width:1.0;"/><text fill="#000000" font-family="sans-serif" font-size="14" lengthAdjust="spacing" textLength="212" x="424" y="80.292">interact(item: Item): boolean</text></g><!--class Plastic--><g id="elem_Plastic"><rect codeLine="62" fill="#F1F1F1" height="80.5938" id="Plastic" rx="2.5" ry="2.5" style="stroke:#181818;stroke-width:0.5;" width="276" x="555" y="727"/><ellipse cx="665.25" cy="743" fill="#ADD1B2" rx="11" ry="11" style="stroke:#181818;stroke-width:1.0;"/><path d="M667.5938,738.6719 C666.6563,738.2344 666.0625,738.0938 665.1875,738.0938 C662.5625,738.0938 660.5625,740.1719 660.5625,742.8906 L660.5625,744.0156 C660.5625,746.5938 662.6719,748.4844 665.5625,748.4844 C666.7813,748.4844 667.9375,748.1875 668.6875,747.6406 C669.2656,747.2344 669.5938,746.7813 669.5938,746.3906 C669.5938,745.9375 669.2031,745.5469 668.7344,745.5469 C668.5156,745.5469 668.3125,745.625 668.125,745.8125 C667.6719,746.2969 667.6719,746.2969 667.4844,746.3906 C667.0625,746.6563 666.375,746.7813 665.6094,746.7813 C663.5625,746.7813 662.2656,745.6875 662.2656,743.9844 L662.2656,742.8906 C662.2656,741.1094 663.5156,739.7969 665.25,739.7969 C665.8281,739.7969 666.4375,739.9531 666.9063,740.2031 C667.3906,740.4844 667.5625,740.7031 667.6563,741.1094 C667.7188,741.5156 667.75,741.6406 667.8906,741.7656 C668.0313,741.9063 668.2656,742.0156 668.4844,742.0156 C668.75,742.0156 669.0156,741.875 669.1875,741.6563 C669.2969,741.5 669.3281,741.3125 669.3281,740.8906 L669.3281,739.4688 C669.3281,739.0313 669.3125,738.9063 669.2188,738.75 C669.0625,738.4844 668.7813,738.3438 668.4844,738.3438 C668.1875,738.3438 667.9844,738.4375 667.7656,738.75 L667.5938,738.6719 Z " fill="#000000"/><text fill="#000000" font-family="sans-serif" font-size="14" lengthAdjust="spacing" textLength="47" x="685.75" y="747.8467">Plastic</text><line style="stroke:#181818;stroke-width:0.5;" x1="556" x2="830" y1="759" y2="759"/><ellipse cx="566" cy="772.6484" fill="none" rx="3" ry="3" style="stroke:#038048;stroke-width:1.0;"/><text fill="#000000" font-family="sans-serif" font-size="14" lengthAdjust="spacing" textLength="250" x="575" y="775.9951">description: string = "hard plastic"</text><ellipse cx="566" cy="788.9453" fill="none" rx="3" ry="3" style="stroke:#038048;stroke-width:1.0;"/><text fill="#000000" font-family="sans-serif" font-size="14" lengthAdjust="spacing" textLength="142" x="575" y="792.292">name: string = "k3"</text><line style="stroke:#181818;stroke-width:0.5;" x1="556" x2="830" y1="799.5938" y2="799.5938"/></g><!--class Paint--><g id="elem_Paint"><rect codeLine="67" fill="#F1F1F1" height="80.5938" id="Paint" rx="2.5" ry="2.5" style="stroke:#181818;stroke-width:0.5;" width="317" x="866.5" y="727"/><ellipse cx="1002.25" cy="743" fill="#ADD1B2" rx="11" ry="11" style="stroke:#181818;stroke-width:1.0;"/><path d="M1004.5938,738.6719 C1003.6563,738.2344 1003.0625,738.0938 1002.1875,738.0938 C999.5625,738.0938 997.5625,740.1719 997.5625,742.8906 L997.5625,744.0156 C997.5625,746.5938 999.6719,748.4844 1002.5625,748.4844 C1003.7813,748.4844 1004.9375,748.1875 1005.6875,747.6406 C1006.2656,747.2344 1006.5938,746.7813 1006.5938,746.3906 C1006.5938,745.9375 1006.2031,745.5469 1005.7344,745.5469 C1005.5156,745.5469 1005.3125,745.625 1005.125,745.8125 C1004.6719,746.2969 1004.6719,746.2969 1004.4844,746.3906 C1004.0625,746.6563 1003.375,746.7813 1002.6094,746.7813 C1000.5625,746.7813 999.2656,745.6875 999.2656,743.9844 L999.2656,742.8906 C999.2656,741.1094 1000.5156,739.7969 1002.25,739.7969 C1002.8281,739.7969 1003.4375,739.9531 1003.9063,740.2031 C1004.3906,740.4844 1004.5625,740.7031 1004.6563,741.1094 C1004.7188,741.5156 1004.75,741.6406 1004.8906,741.7656 C1005.0313,741.9063 1005.2656,742.0156 1005.4844,742.0156 C1005.75,742.0156 1006.0156,741.875 1006.1875,741.6563 C1006.2969,741.5 1006.3281,741.3125 1006.3281,740.8906 L1006.3281,739.4688 C1006.3281,739.0313 1006.3125,738.9063 1006.2188,738.75 C1006.0625,738.4844 1005.7813,738.3438 1005.4844,738.3438 C1005.1875,738.3438 1004.9844,738.4375 1004.7656,738.75 L1004.5938,738.6719 Z " fill="#000000"/><text fill="#000000" font-family="sans-serif" font-size="14" lengthAdjust="spacing" textLength="37" x="1022.75" y="747.8467">Paint</text><line style="stroke:#181818;stroke-width:0.5;" x1="867.5" x2="1182.5" y1="759" y2="759"/><ellipse cx="877.5" cy="772.6484" fill="none" rx="3" ry="3" style="stroke:#038048;stroke-width:1.0;"/><text fill="#000000" font-family="sans-serif" font-size="14" lengthAdjust="spacing" textLength="291" x="886.5" y="775.9951">description: string = "nice finish theme"</text><ellipse cx="877.5" cy="788.9453" fill="none" rx="3" ry="3" style="stroke:#038048;stroke-width:1.0;"/><text fill="#000000" font-family="sans-serif" font-size="14" lengthAdjust="spacing" textLength="183" x="886.5" y="792.292">name: string = "moomin"</text><line style="stroke:#181818;stroke-width:0.5;" x1="867.5" x2="1182.5" y1="799.5938" y2="799.5938"/></g><!--class DiscFactory--><g id="elem_DiscFactory"><rect codeLine="72" fill="#F1F1F1" height="80.5938" id="DiscFactory" rx="2.5" ry="2.5" style="stroke:#181818;stroke-width:0.5;" width="200" x="144" y="1099"/><ellipse cx="197.75" cy="1115" fill="#ADD1B2" rx="11" ry="11" style="stroke:#181818;stroke-width:1.0;"/><path d="M200.0938,1110.6719 C199.1563,1110.2344 198.5625,1110.0938 197.6875,1110.0938 C195.0625,1110.0938 193.0625,1112.1719 193.0625,1114.8906 L193.0625,1116.0156 C193.0625,1118.5938 195.1719,1120.4844 198.0625,1120.4844 C199.2813,1120.4844 200.4375,1120.1875 201.1875,1119.6406 C201.7656,1119.2344 202.0938,1118.7813 202.0938,1118.3906 C202.0938,1117.9375 201.7031,1117.5469 201.2344,1117.5469 C201.0156,1117.5469 200.8125,1117.625 200.625,1117.8125 C200.1719,1118.2969 200.1719,1118.2969 199.9844,1118.3906 C199.5625,1118.6563 198.875,1118.7813 198.1094,1118.7813 C196.0625,1118.7813 194.7656,1117.6875 194.7656,1115.9844 L194.7656,1114.8906 C194.7656,1113.1094 196.0156,1111.7969 197.75,1111.7969 C198.3281,1111.7969 198.9375,1111.9531 199.4063,1112.2031 C199.8906,1112.4844 200.0625,1112.7031 200.1563,1113.1094 C200.2188,1113.5156 200.25,1113.6406 200.3906,1113.7656 C200.5313,1113.9063 200.7656,1114.0156 200.9844,1114.0156 C201.25,1114.0156 201.5156,1113.875 201.6875,1113.6563 C201.7969,1113.5 201.8281,1113.3125 201.8281,1112.8906 L201.8281,1111.4688 C201.8281,1111.0313 201.8125,1110.9063 201.7188,1110.75 C201.5625,1110.4844 201.2813,1110.3438 200.9844,1110.3438 C200.6875,1110.3438 200.4844,1110.4375 200.2656,1110.75 L200.0938,1110.6719 Z " fill="#000000"/><text fill="#000000" font-family="sans-serif" font-size="14" lengthAdjust="spacing" textLength="84" x="218.25" y="1119.8467">DiscFactory</text><line style="stroke:#181818;stroke-width:0.5;" x1="145" x2="343" y1="1131" y2="1131"/><ellipse cx="155" cy="1144.6484" fill="none" rx="3" ry="3" style="stroke:#038048;stroke-width:1.0;"/><text fill="#000000" font-family="sans-serif" font-size="14" lengthAdjust="spacing" textLength="174" x="164" y="1147.9951">assembly: Machine[] = []</text><line style="stroke:#181818;stroke-width:0.5;" x1="145" x2="343" y1="1155.2969" y2="1155.2969"/><ellipse cx="155" cy="1168.9453" fill="#84BE84" rx="3" ry="3" style="stroke:#038048;stroke-width:1.0;"/><text fill="#000000" font-family="sans-serif" font-size="14" lengthAdjust="spacing" textLength="112" x="164" y="1172.292">produce(): Item</text></g><!--reverse link Part to DiscCraftMachine--><g id="link_Part_DiscCraftMachine"><path codeLine="79" d="M604.679,616.226 C581.726,628.67 557.214,642.462 535,656 C511.161,670.528 485.973,687.086 462.746,702.883 " fill="none" id="Part-backto-DiscCraftMachine" style="stroke:#181818;stroke-width:1.0;"/><polygon fill="none" points="616.161,610.042,608.9817,609.3653,605.5958,615.7321,612.7751,616.4088,616.161,610.042" style="stroke:#181818;stroke-width:1.0;"/><text fill="#000000" font-family="sans-serif" font-size="13" lengthAdjust="spacing" textLength="148" x="536" y="669.0669">is part of (aggregation)</text></g><!--reverse link SerialNumber to Machine--><g id="link_SerialNumber_Machine"><path codeLine="80" d="M112.141,836.891 C116.899,851.584 123.331,866.45 132,879 C139.438,889.768 148.659,899.77 158.593,908.855 " fill="none" id="SerialNumber-backto-Machine" style="stroke:#181818;stroke-width:1.0;"/><polygon fill="#181818" points="108.376,824.086,106.2311,830.9707,111.7612,835.5986,113.9061,828.7139,108.376,824.086" style="stroke:#181818;stroke-width:1.0;"/><text fill="#000000" font-family="sans-serif" font-size="13" lengthAdjust="spacing" textLength="166" x="133" y="875.0669">assigned to (composition)</text></g><!--reverse link DiscCraftSerialNumber to DiscCraftMachine--><g id="link_DiscCraftSerialNumber_DiscCraftMachine"><path codeLine="82" d="M255.343,635.84 C266.133,648.225 277.378,661.045 288,673 C296.597,682.676 305.746,692.858 314.736,702.799 " fill="none" id="DiscCraftSerialNumber-backto-DiscCraftMachine" style="stroke:#181818;stroke-width:1.0;"/><polygon fill="#181818" points="246.807,626.025,247.726,633.1773,254.6816,635.0799,253.7626,627.9276,246.807,626.025" style="stroke:#181818;stroke-width:1.0;"/><text fill="#000000" font-family="sans-serif" font-size="13" lengthAdjust="spacing" textLength="166" x="289" y="669.0669">assigned to (composition)</text></g><!--reverse link Machine to DiscFactory--><g id="link_Machine_DiscFactory"><path codeLine="83" d="M244,1035.535 C244,1057.112 244,1080.172 244,1098.988 " fill="none" id="Machine-backto-DiscFactory" style="stroke:#181818;stroke-width:1.0;"/><polygon fill="none" points="244,1022.343,240,1028.343,244,1034.343,248,1028.343,244,1022.343" style="stroke:#181818;stroke-width:1.0;"/><text fill="#000000" font-family="sans-serif" font-size="13" lengthAdjust="spacing" textLength="148" x="245" y="1065.0669">is part of (aggregation)</text></g><!--link Item to Part--><g id="link_Item_Part"><path codeLine="84" d="M693,436.264 C693,460.719 693,490.555 693,515.693 " fill="none" id="Item-to-Part" style="stroke:#181818;stroke-width:1.0;"/><polygon fill="none" points="693,528.733,697,522.733,693,516.733,689,522.733,693,528.733" style="stroke:#181818;stroke-width:1.0;"/><text fill="#000000" font-family="sans-serif" font-size="13" lengthAdjust="spacing" textLength="148" x="694" y="479.0669">is part of (aggregation)</text></g><!--link Person to Item--><g id="link_Person_Item"><path codeLine="85" d="M544.492,254.1 C555.283,271.99 569.381,292.71 585,309 C593.955,318.34 604.167,327.3 614.655,335.61 " fill="none" id="Person-to-Item" style="stroke:#181818;stroke-width:1.0;stroke-dasharray:7.0,7.0;"/><polygon fill="#181818" points="618.845,338.881,614.2129,330.1894,614.904,335.8039,609.2895,336.495,618.845,338.881" style="stroke:#181818;stroke-width:1.0;"/><text fill="#000000" font-family="sans-serif" font-size="13" lengthAdjust="spacing" textLength="142" x="586" y="305.0669">interact (dependency)</text></g><!--reverse link Part to Plastic--><g id="link_Part_Plastic"><path codeLine="86" d="M693,630.2 C693,661.568 693,699.147 693,726.895 " fill="none" id="Part-backto-Plastic" style="stroke:#181818;stroke-width:1.0;"/><polygon fill="none" points="686,630.164,693,610.164,700,630.163,686,630.164" style="stroke:#181818;stroke-width:1.0;"/><text fill="#000000" font-family="sans-serif" font-size="13" lengthAdjust="spacing" textLength="137" x="694" y="669.0669">extends (inheritance)</text></g><!--reverse link Part to Paint--><g id="link_Part_Paint"><path codeLine="87" d="M779.116,620.364 C799.128,632.013 820.33,644.406 840,656 C879.642,679.366 923.897,705.788 959.182,726.935 " fill="none" id="Part-backto-Paint" style="stroke:#181818;stroke-width:1.0;"/><polygon fill="none" points="775.3,626.242,761.529,610.138,782.337,614.139,775.3,626.242" style="stroke:#181818;stroke-width:1.0;"/><text fill="#000000" font-family="sans-serif" font-size="13" lengthAdjust="spacing" textLength="137" x="867" y="669.0669">extends (inheritance)</text></g><!--link Disc to Item--><g id="link_Disc_Item"><path codeLine="88" d="M759.373,262.41 C749.653,280.58 738.413,301.6 727.976,321.11 " fill="none" id="Disc-to-Item" style="stroke:#181818;stroke-width:1.0;stroke-dasharray:7.0,7.0;"/><polygon fill="none" points="734.095,324.51,718.49,338.845,721.75,317.91,734.095,324.51" style="stroke:#181818;stroke-width:1.0;"/><text fill="#000000" font-family="sans-serif" font-size="13" lengthAdjust="spacing" textLength="252" x="743" y="305.0669">implements (interface implementation)</text></g><!--link Chad to Person--><g id="link_Chad_Person"><path codeLine="89" d="M523,88.2 C523,107.57 523,131.27 523,152.77 " fill="none" id="Chad-to-Person" style="stroke:#181818;stroke-width:1.0;stroke-dasharray:7.0,7.0;"/><polygon fill="none" points="530,152.88,523,172.88,516,152.88,530,152.88" style="stroke:#181818;stroke-width:1.0;"/><text fill="#000000" font-family="sans-serif" font-size="13" lengthAdjust="spacing" textLength="252" x="524" y="131.0669">implements (interface implementation)</text></g><!--link DiscFactory to Factory--><g id="link_DiscFactory_Factory"><path codeLine="90" d="M244,1180.269 C244,1197.414 244,1217.832 244,1236.736 " fill="none" id="DiscFactory-to-Factory" style="stroke:#181818;stroke-width:1.0;stroke-dasharray:7.0,7.0;"/><polygon fill="none" points="251,1236.804,244,1256.8036,237,1236.804,251,1236.804" style="stroke:#181818;stroke-width:1.0;"/><text fill="#000000" font-family="sans-serif" font-size="13" lengthAdjust="spacing" textLength="252" x="245" y="1223.0669">implements (interface implementation)</text></g><!--link DiscCraftMachine to Machine--><g id="link_DiscCraftMachine_Machine"><path codeLine="91" d="M337.234,832.062 C328.036,847.622 317.926,864.084 308,879 C305.169,883.255 302.205,887.584 299.171,891.923 " fill="none" id="DiscCraftMachine-to-Machine" style="stroke:#181818;stroke-width:1.0;stroke-dasharray:7.0,7.0;"/><polygon fill="none" points="304.584,896.387,287.245,908.568,293.204,888.233,304.584,896.387" style="stroke:#181818;stroke-width:1.0;"/><text fill="#000000" font-family="sans-serif" font-size="13" lengthAdjust="spacing" textLength="252" x="319" y="875.0669">implements (interface implementation)</text></g><!--link DiscCraftSerialNumber to SerialNumber--><g id="link_DiscCraftSerialNumber_SerialNumber"><path codeLine="92" d="M121.391,626.059 C113.211,635.13 106.0511,645.151 101,656 C95.9933,666.753 93.288,678.757 92.0647,690.78 " fill="none" id="DiscCraftSerialNumber-to-SerialNumber" style="stroke:#181818;stroke-width:1.0;"/><polygon fill="none" points="99.0571,691.111,91.2602,710.814,85.0684,690.55,99.0571,691.111" style="stroke:#181818;stroke-width:1.0;"/><text fill="#000000" font-family="sans-serif" font-size="13" lengthAdjust="spacing" textLength="137" x="102" y="669.0669">extends (inheritance)</text></g><!--SRC=[lLHDZzCm4BtdLunwIXUb5suHSDaL4WTGfJqY3gupQInYEx8TYOhotnb_fCJRfBiB4fT8iMVUUpFpnknWdM7S0U-PjR1dni7F0k0DA2Qn1heLwXWE6hJSYC49hIxdlug2vGYFQ0JhlupoW2OXIQR6bY96WoP3bBh1FZiPZ6v6xYaUc2Dw_mqNTWOxPnVAeI5mXC-CTq9XuipZvw8Y3zLfwr3krs_XH7C-3gTI3sYOqvIpHsErsjPmqBf7fa8KLOZoq6Cf7CeQFj5t5f7fyNT9p3KRrtBeqLSuHnyjbcjm7wc1sfmIOj9nggUo4sxiNq3n_3b4h6Xjl26EI5PBY_Dz49RV6zQw_ppe9-otfhqeSMtiJ-ODPnXLWorXDt_l2wzWhNalzmIyXvRr5bUy4I7lEzRyuqZtz7LY4hQmvYHaqp7Jm10ZDrTqFkBxsyqCan7vRKGbo9FKQ64xS1rAN8QLMakXDdaJdzq6ogIshkr44TuvNLNNXgf1s30Sq2sKx7WqU6HU-hR877z7oNzoI84uacN0QIZz8BKLCQbONfYxPUvrd2bc4Zrru8RUy09LbOwl-et0PFtTxaDyjUgBSw1iS41Q2CLFszYrTsTIa2nJ0_vmT6sX5AgZ-XnJ7BD0xuEriB0EkzqvqXAhNm29oeN0wTcwd2QrmV4XA-f-QTwyQo4z_RmcFnjN04a_hmR9t51LXFIOFMAB7ViD]--></g></svg>