<?xml version="1.0" encoding="us-ascii" standalone="no"?><svg xmlns="http://www.w3.org/2000/svg" xmlns:xlink="http://www.w3.org/1999/xlink" contentStyleType="text/css" height="473px" preserveAspectRatio="none" style="width:753px;height:473px;background:#FFFFFF;" version="1.1" viewBox="0 0 753 473" width="753px" zoomAndPan="magnify"><defs/><g><line style="stroke:#181818;stroke-width:0.5;stroke-dasharray:5.0,5.0;" x1="23" x2="23" y1="81.2969" y2="392.625"/><line style="stroke:#181818;stroke-width:0.5;stroke-dasharray:5.0,5.0;" x1="247.5" x2="247.5" y1="81.2969" y2="392.625"/><line style="stroke:#181818;stroke-width:0.5;stroke-dasharray:5.0,5.0;" x1="432.5" x2="432.5" y1="81.2969" y2="392.625"/><line style="stroke:#181818;stroke-width:0.5;stroke-dasharray:5.0,5.0;" x1="534.5" x2="534.5" y1="81.2969" y2="392.625"/><line style="stroke:#181818;stroke-width:0.5;stroke-dasharray:5.0,5.0;" x1="655" x2="655" y1="81.2969" y2="392.625"/><line style="stroke:#181818;stroke-width:0.5;stroke-dasharray:5.0,5.0;" x1="721" x2="721" y1="81.2969" y2="392.625"/><text fill="#000000" font-family="sans-serif" font-size="14" lengthAdjust="spacing" textLength="31" x="5" y="77.9951">User</text><ellipse cx="23.5" cy="13.5" fill="#E2E2F0" rx="8" ry="8" style="stroke:#181818;stroke-width:0.5;"/><path d="M23.5,21.5 L23.5,48.5 M10.5,29.5 L36.5,29.5 M23.5,48.5 L10.5,63.5 M23.5,48.5 L36.5,63.5 " fill="none" style="stroke:#181818;stroke-width:0.5;"/><text fill="#000000" font-family="sans-serif" font-size="14" lengthAdjust="spacing" textLength="31" x="5" y="404.6201">User</text><ellipse cx="23.5" cy="416.4219" fill="#E2E2F0" rx="8" ry="8" style="stroke:#181818;stroke-width:0.5;"/><path d="M23.5,424.4219 L23.5,451.4219 M10.5,432.4219 L36.5,432.4219 M23.5,451.4219 L10.5,466.4219 M23.5,451.4219 L36.5,466.4219 " fill="none" style="stroke:#181818;stroke-width:0.5;"/><rect fill="#E2E2F0" height="30.2969" rx="2.5" ry="2.5" style="stroke:#181818;stroke-width:0.5;" width="98" x="198.5" y="50"/><text fill="#000000" font-family="sans-serif" font-size="14" lengthAdjust="spacing" textLength="84" x="205.5" y="69.9951">DiscFactory</text><rect fill="#E2E2F0" height="30.2969" rx="2.5" ry="2.5" style="stroke:#181818;stroke-width:0.5;" width="98" x="198.5" y="391.625"/><text fill="#000000" font-family="sans-serif" font-size="14" lengthAdjust="spacing" textLength="84" x="205.5" y="411.6201">DiscFactory</text><rect fill="#E2E2F0" height="30.2969" rx="2.5" ry="2.5" style="stroke:#181818;stroke-width:0.5;" width="44" x="410.5" y="50"/><text fill="#000000" font-family="sans-serif" font-size="14" lengthAdjust="spacing" textLength="30" x="417.5" y="69.9951">Disc</text><rect fill="#E2E2F0" height="30.2969" rx="2.5" ry="2.5" style="stroke:#181818;stroke-width:0.5;" width="44" x="410.5" y="391.625"/><text fill="#000000" font-family="sans-serif" font-size="14" lengthAdjust="spacing" textLength="30" x="417.5" y="411.6201">Disc</text><rect fill="#E2E2F0" height="30.2969" rx="2.5" ry="2.5" style="stroke:#181818;stroke-width:0.5;" width="140" x="464.5" y="50"/><text fill="#000000" font-family="sans-serif" font-size="14" lengthAdjust="spacing" textLength="126" x="471.5" y="69.9951">DiscCraftMachine</text><rect fill="#E2E2F0" height="30.2969" rx="2.5" ry="2.5" style="stroke:#181818;stroke-width:0.5;" width="140" x="464.5" y="391.625"/><text fill="#000000" font-family="sans-serif" font-size="14" lengthAdjust="spacing" textLength="126" x="471.5" y="411.6201">DiscCraftMachine</text><rect fill="#E2E2F0" height="30.2969" rx="2.5" ry="2.5" style="stroke:#181818;stroke-width:0.5;" width="61" x="625" y="50"/><text fill="#000000" font-family="sans-serif" font-size="14" lengthAdjust="spacing" textLength="47" x="632" y="69.9951">Plastic</text><rect fill="#E2E2F0" height="30.2969" rx="2.5" ry="2.5" style="stroke:#181818;stroke-width:0.5;" width="61" x="625" y="391.625"/><text fill="#000000" font-family="sans-serif" font-size="14" lengthAdjust="spacing" textLength="47" x="632" y="411.6201">Plastic</text><rect fill="#E2E2F0" height="30.2969" rx="2.5" ry="2.5" style="stroke:#181818;stroke-width:0.5;" width="51" x="696" y="50"/><text fill="#000000" font-family="sans-serif" font-size="14" lengthAdjust="spacing" textLength="37" x="703" y="69.9951">Paint</text><rect fill="#E2E2F0" height="30.2969" rx="2.5" ry="2.5" style="stroke:#181818;stroke-width:0.5;" width="51" x="696" y="391.625"/><text fill="#000000" font-family="sans-serif" font-size="14" lengthAdjust="spacing" textLength="37" x="703" y="411.6201">Paint</text><polygon fill="#181818" points="235.5,108.4297,245.5,112.4297,235.5,116.4297,239.5,112.4297" style="stroke:#181818;stroke-width:1.0;"/><line style="stroke:#181818;stroke-width:1.0;" x1="23.5" x2="241.5" y1="112.4297" y2="112.4297"/><text fill="#000000" font-family="sans-serif" font-size="13" lengthAdjust="spacing" textLength="62" x="30.5" y="107.3638">produce()</text><polygon fill="#181818" points="420.5,137.5625,430.5,141.5625,420.5,145.5625,424.5,141.5625" style="stroke:#181818;stroke-width:1.0;"/><line style="stroke:#181818;stroke-width:1.0;" x1="247.5" x2="426.5" y1="141.5625" y2="141.5625"/><text fill="#000000" font-family="sans-serif" font-size="13" lengthAdjust="spacing" textLength="161" x="254.5" y="136.4966">create new Disc instance</text><polygon fill="#181818" points="522.5,166.6953,532.5,170.6953,522.5,174.6953,526.5,170.6953" style="stroke:#181818;stroke-width:1.0;"/><line style="stroke:#181818;stroke-width:1.0;" x1="247.5" x2="528.5" y1="170.6953" y2="170.6953"/><text fill="#000000" font-family="sans-serif" font-size="13" lengthAdjust="spacing" textLength="99" x="254.5" y="165.6294">assemble(Disc)</text><polygon fill="#181818" points="643.5,195.8281,653.5,199.8281,643.5,203.8281,647.5,199.8281" style="stroke:#181818;stroke-width:1.0;"/><line style="stroke:#181818;stroke-width:1.0;" x1="534.5" x2="649.5" y1="199.8281" y2="199.8281"/><text fill="#000000" font-family="sans-serif" font-size="13" lengthAdjust="spacing" textLength="97" x="541.5" y="194.7622">pop one Plastic</text><polygon fill="#181818" points="443.5,224.9609,433.5,228.9609,443.5,232.9609,439.5,228.9609" style="stroke:#181818;stroke-width:1.0;"/><line style="stroke:#181818;stroke-width:1.0;" x1="437.5" x2="654.5" y1="228.9609" y2="228.9609"/><text fill="#000000" font-family="sans-serif" font-size="13" lengthAdjust="spacing" textLength="69" x="449.5" y="223.895">add Plastic</text><polygon fill="#181818" points="709.5,254.0938,719.5,258.0938,709.5,262.0938,713.5,258.0938" style="stroke:#181818;stroke-width:1.0;"/><line style="stroke:#181818;stroke-width:1.0;" x1="534.5" x2="715.5" y1="258.0938" y2="258.0938"/><text fill="#000000" font-family="sans-serif" font-size="13" lengthAdjust="spacing" textLength="88" x="541.5" y="253.0278">pop one Paint</text><polygon fill="#181818" points="443.5,283.2266,433.5,287.2266,443.5,291.2266,439.5,287.2266" style="stroke:#181818;stroke-width:1.0;"/><line style="stroke:#181818;stroke-width:1.0;" x1="437.5" x2="720.5" y1="287.2266" y2="287.2266"/><text fill="#000000" font-family="sans-serif" font-size="13" lengthAdjust="spacing" textLength="60" x="449.5" y="282.1606">add Paint</text><polygon fill="#181818" points="443.5,312.3594,433.5,316.3594,443.5,320.3594,439.5,316.3594" style="stroke:#181818;stroke-width:1.0;"/><line style="stroke:#181818;stroke-width:1.0;" x1="437.5" x2="533.5" y1="316.3594" y2="316.3594"/><text fill="#000000" font-family="sans-serif" font-size="13" lengthAdjust="spacing" textLength="69" x="449.5" y="311.2935">return true</text><polygon fill="#181818" points="420.5,341.4922,430.5,345.4922,420.5,349.4922,424.5,345.4922" style="stroke:#181818;stroke-width:1.0;"/><line style="stroke:#181818;stroke-width:1.0;" x1="247.5" x2="426.5" y1="345.4922" y2="345.4922"/><text fill="#000000" font-family="sans-serif" font-size="13" lengthAdjust="spacing" textLength="104" x="254.5" y="340.4263">complete = true</text><polygon fill="#181818" points="34.5,370.625,24.5,374.625,34.5,378.625,30.5,374.625" style="stroke:#181818;stroke-width:1.0;"/><line style="stroke:#181818;stroke-width:1.0;" x1="28.5" x2="246.5" y1="374.625" y2="374.625"/><text fill="#000000" font-family="sans-serif" font-size="13" lengthAdjust="spacing" textLength="200" x="40.5" y="369.5591">return completed Disc instance</text><!--SRC=[TP0z3W8X48LxJZ7bMdY1JRJHs9dOU80HnaZ20XbcOxozi7-k1fiXlFVuXZpK4XYkYLYL0Tiz76tI9opwguN8mVIQcerQoNEg1Ss4Gk3fEGXWVHBqcchf0-DTpgWVrbCBc19rDqTDiKRwEb0UNHmciNbB3152rYP1JUVd6sZCObP9QBsiEEMgXld368mQOSmmISyUX7lwqqVeegFSoAuQAXKlb3bhlgjx0m00]--></g></svg>